<svg width="360" height="96" viewBox="0 0 360 96" xmlns="http://www.w3.org/2000/svg" role="img" aria-label="Munimo">
  <defs>
    <linearGradient id="mg" x1="16" y1="16" x2="80" y2="80" gradientUnits="userSpaceOnUse">
      <stop offset="0" stop-color="#34d399"/><stop offset="0.55" stop-color="#10b981"/><stop offset="1" stop-color="#059669"/>
    </linearGradient>
  </defs>
  <g transform="translate(16,16)">
    <rect x="0" y="0" width="64" height="64" rx="17" fill="url(#mg)"/>
    <path d="M32 21 C26.5 17.5 18.5 16.5 13 19 L13 43 C18.5 40.5 26.5 41.5 32 45.5 Z" fill="#04291b"/>
    <path d="M32 21 C37.5 17.5 45.5 16.5 51 19 L51 43 C45.5 40.5 37.5 41.5 32 45.5 Z" fill="#04291b"/>
    <path d="M32 21 L32 45.5" stroke="#0b3f2a" stroke-width="2" stroke-linecap="round"/>
    <path d="M17.5 25.5 C21 24.2 25 24.4 28 25.8 M17.5 31 C21 29.7 25 29.9 28 31.3 M17.5 36.5 C21 35.2 25 35.4 28 36.8" stroke="#0e5e42" stroke-width="2" stroke-linecap="round" fill="none"/>
    <path d="M36.5 32.5 L41 37 L48.5 26.5" stroke="#f5c95c" stroke-width="4.6" stroke-linecap="round" stroke-linejoin="round" fill="none"/>
  </g>
  <text x="98" y="62" font-family="system-ui,-apple-system,'Segoe UI',Roboto,sans-serif" font-size="42" font-weight="800" letter-spacing="-1" fill="#f1f6f4">Munimo</text>
</svg>